<svg viewBox="-50 -40 100 100" xmlns="http://www.w3.org/2000/svg">
    <path style="fill:none;stroke:white;stroke-width:6;stroke-linejoin:round;" d="
        M 0,0 h 42 Q 48,0 45,6 L 30,42 Q 27,48 24,48 h -48
        Q -27,48 -30,42 L -45,6 Q -48,0 -42,0 h 42 Z
        M -30,0 L -6,-30 Z
        M 30,0 L 6,-30 Z
        M -36,0 v 27 Z
        M -24,0 v 48 Z
        M -12,0 v 48 Z
        M 0,0 v 48 Z
        M 12,0 v 48 Z
        M 24,0 v 48 Z
        M 36,0 v 27 Z
        M -42,12 h 84 Z
        M -37,24 h 74 Z
        M -32,36 h 64 Z
    "/>
    <path style="fill:none;stroke:black;stroke-width:4;stroke-linejoin:round;" d="
        M 0,0 h 42 Q 48,0 45,6 L 30,42 Q 27,48 24,48 h -48
        Q -27,48 -30,42 L -45,6 Q -48,0 -42,0 h 42 Z
        M -30,0 L -6,-30 Z
        M 30,0 L 6,-30 Z
        M -36,0 v 27 Z
        M -24,0 v 48 Z
        M -12,0 v 48 Z
        M 0,0 v 48 Z
        M 12,0 v 48 Z
        M 24,0 v 48 Z
        M 36,0 v 27 Z
        M -42,12 h 84 Z
        M -37,24 h 74 Z
        M -32,36 h 64 Z
    "/>
</svg>